{"title":"Rugby: Caloundra vs. Noosa","uid":9033804,"size":5014478848,"categoryP":"video","categoryS":"other","magnet":"?xt=urn:btih:d3d7f584791060a6f236016693b2d96157f8df1c&amp;dn=Rugby%3A+Caloundra+vs.+Noosa&amp;tr=udp%3A%2F%2Ftracker.openbittorrent.com%3A80&amp;tr=udp%3A%2F%2Fopen.demonii.com%3A1337&amp;tr=udp%3A%2F%2Ftracker.coppersurfer.tk%3A6969&amp;tr=udp%3A%2F%2Fexodus.desync.com%3A6969","seeders":0,"leechers":0,"uploader":"patrick-gillett","files":1,"time":1381468183,"description":"Video\nID                                       : 224 (0xE0)\nFormat                                   : MPEG Video\nFormat version                           : Version 2\nFormat profile                           : Main@Main\nFormat settings, BVOP                    : Yes\nFormat settings, Matrix                  : Default\nFormat settings, GOP                     : M=3, N=12\nDuration                                 : 1h 37mn\nBit rate mode                            : Variable\nBit rate                                 : 6 495 Kbps\nMaximum bit rate                         : 8 000 Kbps\nWidth                                    : 720 pixels\nHeight                                   : 576 pixels\nDisplay aspect ratio                     : 16:9\nFrame rate                               : 25.000 fps\nStandard                                 : PAL\nColor space                              : YUV\nChroma subsampling                       : 4:2:0\nBit depth                                : 8 bits\nScan type                                : Interlaced\nScan order                               : Bottom Field First\nCompression mode                         : Lossy\nBits/(Pixel*Frame)                       : 0.626\nStream size                              : 4.45 GiB (95%)\n\nAudio\nID                                       : 189 (0xBD)-128 (0x80)\nFormat                                   : AC-3\nFormat/Info                              : Audio Coding 3\nMode extension                           : CM (complete main)\nFormat settings, Endianness              : Big\nMuxing mode                              : DVD-Video\nDuration                                 : 1h 37mn\nBit rate mode                            : Constant\nBit rate                                 : 192 Kbps\nChannel(s)                               : 2 channels\nChannel positions                        : Front: L R\nSampling rate                            : 48.0 KHz\nBit depth                                : 16 bits\nCompression mode                         : Lossy\nDelay relative to video                  : 32ms\nStream size                              : 135 MiB (3%)","torrent":{"xt":"urn:btih:d3d7f584791060a6f236016693b2d96157f8df1c","amp;dn":"Rugby%3A+Caloundra+vs.+Noosa","amp;tr":["udp%3A%2F%2Ftracker.openbittorrent.com%3A80","udp%3A%2F%2Fopen.demonii.com%3A1337","udp%3A%2F%2Ftracker.coppersurfer.tk%3A6969","udp%3A%2F%2Fexodus.desync.com%3A6969"],"infoHash":"d3d7f584791060a6f236016693b2d96157f8df1c","infoHashBuffer":{"type":"Buffer","data":[211,215,245,132,121,16,96,166,242,54,1,102,147,178,217,97,87,248,223,28]},"announce":[],"urlList":[]}}